<svg width="496" height="92" viewBox="0 0 496 92" fill="none" xmlns="http://www.w3.org/2000/svg">
<path opacity="0.15" d="M0.87 129L46.26 2.34999H65.98L111.37 129H93.52L83.15 99.25H29.09L18.72 129H0.87ZM34.36 83.95H77.88L53.74 14.42H58.5L34.36 83.95ZM172.889 131.04C165.522 131.04 158.779 129.397 152.659 126.11C146.652 122.823 142.005 118.177 138.719 112.17L140.929 109.45V129H125.459V0.309995H141.269V57.09L138.889 53.18C142.289 47.74 146.935 43.4333 152.829 40.26C158.722 36.9733 165.465 35.33 173.059 35.33C181.672 35.33 189.379 37.4267 196.179 41.62C203.092 45.8133 208.532 51.5367 212.499 58.79C216.465 65.93 218.449 74.09 218.449 83.27C218.449 92.2233 216.465 100.327 212.499 107.58C208.532 114.833 203.092 120.557 196.179 124.75C189.379 128.943 181.615 131.04 172.889 131.04ZM171.699 115.74C177.479 115.74 182.635 114.323 187.169 111.49C191.702 108.657 195.215 104.803 197.709 99.93C200.315 94.9433 201.619 89.39 201.619 83.27C201.619 76.9233 200.315 71.37 197.709 66.61C195.215 61.7367 191.702 57.8833 187.169 55.05C182.635 52.1033 177.479 50.63 171.699 50.63C165.919 50.63 160.705 52.0467 156.059 54.88C151.525 57.7133 147.899 61.6233 145.179 66.61C142.572 71.4833 141.269 77.0367 141.269 83.27C141.269 89.39 142.572 94.9433 145.179 99.93C147.899 104.803 151.525 108.657 156.059 111.49C160.705 114.323 165.919 115.74 171.699 115.74ZM282.699 131.04C273.859 131.04 265.869 129 258.729 124.92C251.589 120.727 245.923 115.003 241.729 107.75C237.536 100.497 235.439 92.28 235.439 83.1C235.439 73.92 237.479 65.76 241.559 58.62C245.753 51.48 251.419 45.8133 258.559 41.62C265.699 37.4267 273.746 35.33 282.699 35.33C291.539 35.33 299.529 37.4267 306.669 41.62C313.809 45.7 319.419 51.31 323.499 58.45C327.693 65.59 329.789 73.8067 329.789 83.1C329.789 92.3933 327.636 100.667 323.329 107.92C319.023 115.06 313.299 120.727 306.159 124.92C299.133 129 291.313 131.04 282.699 131.04ZM282.699 115.74C288.366 115.74 293.466 114.323 297.999 111.49C302.646 108.657 306.273 104.747 308.879 99.76C311.599 94.7733 312.959 89.22 312.959 83.1C312.959 76.8667 311.599 71.37 308.879 66.61C306.273 61.7367 302.646 57.8833 297.999 55.05C293.466 52.1033 288.366 50.63 282.699 50.63C276.919 50.63 271.706 52.1033 267.059 55.05C262.526 57.8833 258.899 61.7367 256.179 66.61C253.459 71.37 252.099 76.8667 252.099 83.1C252.099 89.22 253.459 94.7733 256.179 99.76C258.899 104.747 262.526 108.657 267.059 111.49C271.706 114.323 276.919 115.74 282.699 115.74ZM382.88 131.04C376.307 131.04 370.357 129.51 365.03 126.45C359.817 123.39 355.737 119.14 352.79 113.7C349.957 108.147 348.54 101.8 348.54 94.66V37.37H364.35V92.96C364.35 97.4933 365.257 101.46 367.07 104.86C368.997 108.26 371.603 110.923 374.89 112.85C378.29 114.777 382.143 115.74 386.45 115.74C390.757 115.74 394.553 114.777 397.84 112.85C401.24 110.923 403.847 108.147 405.66 104.52C407.587 100.893 408.55 96.5867 408.55 91.6V37.37H424.53V129H409.06V111.15L411.61 112.68C409.457 118.46 405.773 122.993 400.56 126.28C395.46 129.453 389.567 131.04 382.88 131.04ZM486.253 130.02C477.3 130.02 470.387 127.47 465.513 122.37C460.753 117.27 458.373 110.073 458.373 100.78V52.5H441.713V37.37H445.113C449.193 37.37 452.423 36.1233 454.803 33.63C457.183 31.1367 458.373 27.85 458.373 23.77V16.29H474.183V37.37H494.753V52.5H474.183V100.27C474.183 103.33 474.637 105.993 475.543 108.26C476.563 110.527 478.207 112.34 480.473 113.7C482.74 114.947 485.743 115.57 489.483 115.57C490.277 115.57 491.24 115.513 492.373 115.4C493.62 115.287 494.753 115.173 495.773 115.06V129C494.3 129.34 492.657 129.567 490.843 129.68C489.03 129.907 487.5 130.02 486.253 130.02Z" fill="black"/>
</svg>

